HIERARCHY
ROOT root
{
	OFFSET	0	13.1	24.9
	CHANNELS 6  Xposition Yposition Zposition Xrotation Yrotation Zrotation
	JOINT spine_1
	{
		OFFSET	0	9.99999	0
		CHANNELS 3  Xrotation Yrotation Zrotation
		JOINT spine_2
		{
			OFFSET	0	112	-10
			CHANNELS 3  Xrotation Yrotation Zrotation
			JOINT spine_3
			{
				OFFSET	0	206.5	19.3
				CHANNELS 3  Xrotation Yrotation Zrotation
				JOINT spine_4
				{
					OFFSET	0	110.4	14.6
					CHANNELS 3  Xrotation Yrotation Zrotation
					JOINT neck_1
					{
						OFFSET	0	71.8	-50.3
						CHANNELS 3  Xrotation Yrotation Zrotation
						JOINT neck_2
						{
							OFFSET	0	86.2	-25.8
							CHANNELS 3  Xrotation Yrotation Zrotation
							JOINT head_ee
							{
								OFFSET	0	179.8	-8.7
								CHANNELS 3  Xrotation Yrotation Zrotation
								End Site
								{
									OFFSET	1	0	0
								}
							}
						}
					}
					JOINT left_clavicle
					{
						OFFSET	-43.2	22.4	-70.8
						CHANNELS 3  Xrotation Yrotation Zrotation
						JOINT left_shoulder
						{
							OFFSET	-93.9	-5.79999	48.7
							CHANNELS 3  Xrotation Yrotation Zrotation
							JOINT left_elbow
							{
								OFFSET	-291.4	-30.8	15.2
								CHANNELS 3  Xrotation Yrotation Zrotation
								JOINT left_lowarm_twist
								{
									OFFSET	-110.7	-3.89999	13.6
									CHANNELS 3  Xrotation Yrotation Zrotation
									JOINT left_hand
									{
										OFFSET	-110.7	-3.89999	13.6
										CHANNELS 3  Xrotation Yrotation Zrotation
										JOINT left_ee
										{
											OFFSET	-80.8	-5.10001	12.1
											CHANNELS 3  Xrotation Yrotation Zrotation
											End Site
											{
												OFFSET	1	0	0
											}
										}
									}
								}
							}
						}
					}
					JOINT right_clavicle
					{
						OFFSET	43.2	22.4	-70.8
						CHANNELS 3  Xrotation Yrotation Zrotation
						JOINT right_shoulder
						{
							OFFSET	93.9	-5.79999	48.7
							CHANNELS 3  Xrotation Yrotation Zrotation
							JOINT right_elbow
							{
								OFFSET	291.4	-30.8	15.2
								CHANNELS 3  Xrotation Yrotation Zrotation
								JOINT right_lowarm_twist
								{
									OFFSET	110.7	-3.89999	13.6
									CHANNELS 3  Xrotation Yrotation Zrotation
									JOINT right_hand
									{
										OFFSET	110.7	-3.89999	13.6
										CHANNELS 3  Xrotation Yrotation Zrotation
										JOINT right_ee
										{
											OFFSET	80.8	-5.10001	12.1
											CHANNELS 3  Xrotation Yrotation Zrotation
											End Site
											{
												OFFSET	1	0	0
											}
										}
									}
								}
							}
						}
					}
				}
			}
		}
	}
	JOINT left_hip
	{
		OFFSET	-82.8	-127.5	0.300001
		CHANNELS 3  Xrotation Yrotation Zrotation
		JOINT left_knee
		{
			OFFSET	-28.2	-396.7	2.2
			CHANNELS 3  Xrotation Yrotation Zrotation
			JOINT left_ankle
			{
				OFFSET	-11.7	-411.3	35.4
				CHANNELS 3  Xrotation Yrotation Zrotation
				JOINT left_toes
				{
					OFFSET	0	-60	-88.6
					CHANNELS 3  Xrotation Yrotation Zrotation
					JOINT left_foot_ee
					{
						OFFSET	-22.5	-16.5	-42.2
						CHANNELS 3  Xrotation Yrotation Zrotation
						End Site
						{
							OFFSET	1	0	0
						}
					}
				}
			}
		}
	}
	JOINT right_hip
	{
		OFFSET	82.8	-127.5	0.300001
		CHANNELS 3  Xrotation Yrotation Zrotation
		JOINT right_knee
		{
			OFFSET	28.2	-396.7	2.2
			CHANNELS 3  Xrotation Yrotation Zrotation
			JOINT right_ankle
			{
				OFFSET	11.7	-411.3	35.4
				CHANNELS 3  Xrotation Yrotation Zrotation
				JOINT right_toes
				{
					OFFSET	0	-60	-88.6
					CHANNELS 3  Xrotation Yrotation Zrotation
					JOINT right_foot_ee
					{
						OFFSET	22.5	-16.5	-42.2
						CHANNELS 3  Xrotation Yrotation Zrotation
						End Site
						{
							OFFSET	1	0	0
						}
					}
				}
			}
		}
	}
}
MOTION
Frames: 7
Frame Time: 0.02
474.986568367 709.169 -1171.26790055 -179.152826538 -38.0859649394 -175.795616494 -1.30703 -0.560723 -2.63932 -1.30324 -0.391701 -2.66962 -1.28133 0.238326 -2.68765 -1.29136 -0.18897 -2.69156 5.28065 16.996 7.09284 5.89452 22.9532 8.78087 -0.0 0.0 -0.0 6.98686 22.3975 12.5264 -13.7513 -40.7203 65.0511 1.28781 -32.5342 0.375795 18.7098 0.275524 -2.36353 1.34454 -2.61741 7.95042 -0.0 0.0 -0.0 1.00059 22.1436 0.40748 -8.94392 22.4212 -67.3523 0.880711 23.5704 -0.183756 4.14035 -0.127368 0.5134 -0.52361 4.10974 5.27228 0.0 0.0 0.0 -0.71568 12.1302 5.82122 -6.19876 0.205138 0.928748 39.4831 2.7549 -4.81655 -13.887 0.0 0.0 -0.0 0.0 -0.0 12.0276 9.52873 1.91282 -12.8421 -0.31224 -1.94195 6.20258 -13.0038 0.895837 39.956 -0.0 -0.0 0.0 0.0 0.0 
485.908563438 707.495 -1162.89354255 -179.710605482 -36.631537138 -176.686582603 -1.59365 -0.500956 -2.77586 -1.58942 -0.323377 -2.80209 -1.56937 0.349711 -2.79892 -1.58029 -0.0965343 -2.81902 5.47064 17.8389 7.93319 6.1363 23.6018 9.75211 -0.0 0.0 -0.0 7.59242 21.1868 13.5463 -13.1441 -41.2592 64.3698 1.34508 -33.6743 0.407071 18.2183 0.27822 -2.30081 1.85378 -5.31616 10.3 -0.0 0.0 -0.0 0.313943 20.381 1.70061 -9.48669 22.178 -67.2468 0.894057 23.8878 -0.189126 3.61509 -0.113271 0.447784 -0.29071 6.62212 4.77614 0.0 0.0 0.0 -0.520381 13.4396 5.96038 -10.2132 0.283917 1.53961 39.8376 -1.03961 -4.8704 -14.6729 0.0 0.0 -0.0 0.0 -0.0 13.8847 8.76935 2.19384 -10.9046 -0.293155 -1.6453 4.77061 -10.2099 0.689861 39.8259 -0.0 -0.0 0.0 0.0 0.0 
500.49745915 703.203 -1155.30170478 -178.878683664 -33.8326228817 -176.355387177 -1.50608 -0.68839 -2.99766 -1.50122 -0.496337 -3.03534 -1.46983 0.231427 -3.0669 -1.48287 -0.255603 -3.06498 6.77713 18.0333 7.36939 7.49854 23.9992 9.01691 -0.0 0.0 -0.0 8.13896 23.4176 14.0954 -10.7238 -41.6259 64.5102 1.42043 -35.1298 0.449651 18.2328 0.278148 -2.30266 1.60182 -5.3342 8.57035 -0.0 0.0 -0.0 -0.299527 20.9803 3.09444 -10.7344 20.0417 -67.5531 0.881785 23.5959 -0.184185 3.57381 -0.112137 0.442633 -0.172831 6.29122 3.83685 0.0 0.0 0.0 -1.27689 12.7631 6.20725 -8.86609 0.262257 1.33404 39.2265 -4.49277 -4.85704 -15.4051 0.0 0.0 -0.0 0.0 -0.0 19.5302 7.29201 1.26387 -13.9485 -0.318635 -2.11159 3.84904 -13.4428 0.560013 39.986 -0.0 -0.0 0.0 0.0 0.0 
499.158962451 701.61 -1150.77962745 -178.141544348 -31.145586516 -174.942714489 -1.48 -0.479796 -3.24146 -1.4742 -0.272673 -3.26539 -1.45329 0.502396 -3.23804 -1.46792 -0.0150119 -3.27671 6.1885 17.8034 7.56698 6.87172 23.6254 9.28316 -0.0 0.0 -0.0 8.36615 23.8157 14.3719 -9.05161 -41.8472 63.9115 1.52975 -37.152 0.51413 18.5482 0.27647 -2.34291 1.44215 -5.10232 7.58051 -0.0 0.0 -0.0 -0.452767 20.6959 3.39424 -9.66781 18.5241 -68.3121 0.860218 23.0799 -0.175641 4.39591 -0.134009 0.54537 -0.522881 7.18692 6.59341 0.0 0.0 0.0 -1.62826 11.99 5.98859 -5.50018 0.187064 0.823064 39.0137 1.24018 -4.78209 -15.6989 0.0 0.0 -0.0 0.0 -0.0 22.2252 5.70787 -0.430669 -12.2722 -0.307668 -1.85464 0.552523 -13.7776 0.0811078 39.3562 -0.0 -0.0 0.0 0.0 0.0 
503.400674933 701.749 -1143.54020904 -177.956286679 -32.0732688927 -175.13317286 -1.41754 -0.828456 -3.09295 -1.41244 -0.630065 -3.13933 -1.37242 0.120281 -3.19962 -1.3865 -0.386288 -3.17851 5.17007 17.3385 8.1359 5.77975 22.6538 9.99814 -0.0 0.0 -0.0 8.84226 22.9744 15.1926 -7.8968 -42.357 63.0748 1.51536 -36.8917 0.505466 18.5835 0.276268 -2.34742 1.77241 -7.40976 8.85494 -0.0 0.0 -0.0 -0.51375 19.9835 3.44485 -11.3344 21.6747 -67.8834 0.863034 23.1475 -0.176747 4.08791 -0.125988 0.506844 0.0813097 7.70725 2.72323 0.0 0.0 0.0 -1.86402 10.9234 6.1024 -4.33379 0.154017 0.647115 36.6419 -3.63933 -4.61164 -16.2074 0.0 0.0 -0.0 0.0 -0.0 21.7043 9.47476 0.329491 -10.8968 -0.293058 -1.6441 2.79043 -11.9683 0.406326 40.1076 -0.0 -0.0 0.0 0.0 0.0 
505.501878691 702.891 -1141.27619941 -176.657967511 -33.2233624883 -173.759487174 -1.17425 -0.857377 -3.15449 -1.16895 -0.655017 -3.20258 -1.12699 0.0967454 -3.26738 -1.14164 -0.420214 -3.24172 5.49923 17.2188 8.35489 6.09429 22.1393 10.2336 -0.0 0.0 -0.0 9.17155 23.0227 15.6757 -5.4064 -42.6055 63.2617 1.58399 -38.1172 0.547257 18.6351 0.275969 -2.354 1.74754 -8.03616 8.41676 -0.0 0.0 -0.0 -0.743202 19.4348 3.87767 -11.1079 19.4997 -68.8469 0.821588 22.1457 -0.160788 4.62142 -0.13975 0.573604 -0.202281 5.6316 3.75385 0.0 0.0 0.0 -2.4538 12.2266 5.70537 -1.03278 0.0411458 0.15315 34.9118 -0.996228 -4.41874 -16.5598 0.0 0.0 -0.0 0.0 -0.0 24.0657 8.3064 -0.918933 -9.93183 -0.279793 -1.49664 0.947556 -13.4418 0.138891 39.9216 -0.0 -0.0 0.0 0.0 0.0 
506.351087648 702.891 -1142.83280674 -176.627612747 -34.0018135712 -173.704654338 -1.17425 -0.857377 -3.15449 -1.16895 -0.655017 -3.20258 -1.12699 0.0967454 -3.26738 -1.14164 -0.420214 -3.24172 5.49923 17.2188 8.35489 6.09429 22.1393 10.2336 -0.0 0.0 -0.0 9.17155 23.0227 15.6757 -5.4064 -42.6055 63.2617 1.58399 -38.1172 0.547257 18.6351 0.275969 -2.354 1.74754 -8.03616 8.41676 -0.0 0.0 -0.0 -0.743202 19.4348 3.87767 -11.1079 19.4997 -68.8469 0.821588 22.1457 -0.160788 4.62142 -0.13975 0.573604 -0.202281 5.6316 3.75385 0.0 0.0 0.0 -2.4538 12.2266 5.70537 -1.03278 0.0411458 0.15315 34.9118 -0.996228 -4.41874 -16.5598 0.0 0.0 -0.0 0.0 -0.0 24.0657 8.3064 -0.918933 -9.93183 -0.279793 -1.49664 0.947556 -13.4418 0.138891 39.9216 -0.0 -0.0 0.0 0.0 0.0 
